<svg id="Capa_1" enable-background="new 0 0 512.068 512.068" height="512" viewBox="0 0 512.068 512.068" width="512" xmlns="http://www.w3.org/2000/svg"><g><g><path d="m394.772 33.889 49.461 33.928 33.928 49.461c42.409 61.825 32.84 147.337-22.704 202.881l-135.279 135.279c-55.543 55.543-141.056 65.113-202.881 22.704l-49.461-33.928-33.928-49.461c-42.408-61.826-32.839-147.338 22.704-202.881l135.28-135.279c55.543-55.544 141.055-65.113 202.88-22.704z" fill="#e9a761"/><path d="m221.066 503.529c-36.053 4.02-72.864-4.196-103.769-25.387l-49.461-33.928-33.929-49.461c-42.407-61.819-32.834-147.341 22.708-202.884l135.274-135.274c36.829-36.828 86.827-53.436 134.348-48.085-36.053 4.037-71.313 20.31-99.088 48.085l-135.274 135.274c-55.543 55.543-65.116 141.065-22.707 202.884l33.929 49.461 49.46 33.928c20.829 14.289 44.348 22.681 68.509 25.387z" fill="#e69642"/><path d="m357.406 357.386c14.6-14.6 24.704-32.113 30.388-50.988 5.458-18.126 16.198-34.245 31.39-45.538 3.217-2.391 6.285-5.034 9.182-7.931 38.703-38.703 32.191-107.966-14.545-154.702s-115.997-53.247-154.701-14.543c-2.897 2.897-5.539 5.965-7.931 9.182-11.292 15.193-27.412 25.932-45.538 31.39-18.875 5.684-36.389 15.788-50.988 30.388-14.65 14.65-24.774 32.234-30.447 51.184-5.654 18.887-17.737 35.051-33.353 47.085-2.803 2.16-5.489 4.516-8.041 7.068-38.703 38.703-32.191 107.966 14.545 154.702s115.998 53.248 154.702 14.545c2.553-2.553 4.908-5.238 7.068-8.041 12.035-15.616 28.198-27.699 47.085-33.353 18.95-5.673 36.534-15.797 51.184-30.448z" fill="#b7e546"/><path d="m474.645 37.405c30.671 30.671 30.671 80.397 0 111.068l-327.033 327.033c-30.671 30.671-80.397 30.671-111.068 0-30.671-30.671-30.671-80.397 0-111.068l327.033-327.033c30.67-30.67 80.397-30.67 111.068 0z" fill="#df646e"/><path d="m109.708 496.503c-25.475 5.853-53.313-1.146-73.164-20.997-15.338-15.338-22.998-35.427-23.007-55.534.009-20.107 7.669-40.196 23.007-55.534l327.033-327.033c19.851-19.851 47.689-26.85 73.164-20.997-13.892 3.173-27.079 10.172-37.904 20.997l-327.034 327.033c-15.338 15.338-22.998 35.427-23.007 55.534.009 20.107 7.669 40.196 23.007 55.534 10.825 10.825 24.012 17.824 37.905 20.997z" fill="#dc4955"/><path d="m85.026 409.394c-7.302-7.302-7.302-19.142 0-26.445 15.406-15.406 30.529-16.825 41.572-17.862 8.486-.797 12.746-1.196 18.621-7.071 5.874-5.874 6.274-10.134 7.07-18.619 1.036-11.042 2.454-26.165 17.861-41.571 15.405-15.405 30.529-16.825 41.571-17.861 8.485-.796 12.745-1.196 18.62-7.071s6.275-10.135 7.071-18.621c1.036-11.043 2.456-26.165 17.862-41.572 15.405-15.405 30.529-16.825 41.571-17.861 8.485-.796 12.745-1.196 18.62-7.071 5.877-5.877 6.277-10.137 7.074-18.625 1.037-11.042 2.457-26.166 17.864-41.573 15.406-15.406 30.53-16.826 41.572-17.863 8.488-.797 12.748-1.197 18.625-7.074 7.302-7.302 19.142-7.302 26.445 0s7.302 19.142 0 26.445c-15.407 15.407-30.531 16.827-41.573 17.864-8.488.797-12.748 1.197-18.624 7.073-5.877 5.877-6.277 10.137-7.074 18.625-1.037 11.042-2.457 26.166-17.864 41.573-15.405 15.405-30.529 16.825-41.571 17.861-8.485.796-12.745 1.196-18.62 7.071s-6.275 10.135-7.071 18.621c-1.036 11.043-2.456 26.165-17.862 41.572-15.405 15.405-30.529 16.825-41.571 17.861-8.485.796-12.745 1.197-18.62 7.071-5.875 5.875-6.275 10.135-7.07 18.62-1.036 11.042-2.455 26.165-17.86 41.57-15.406 15.406-30.529 16.825-41.572 17.862-8.486.797-12.746 1.196-18.621 7.071-7.304 7.303-19.144 7.303-26.446 0z" fill="#f8e837"/><path d="m431.884 111.019c-6.241-1.657-13.169-.053-18.062 4.839-5.879 5.879-10.137 6.276-18.626 7.078-11.045 1.031-26.163 2.451-41.571 17.859s-16.828 30.526-17.859 41.571c-.802 8.489-1.199 12.746-7.078 18.626-5.88 5.88-10.137 6.276-18.617 7.07-11.045 1.031-26.172 2.459-41.571 17.859-15.408 15.408-16.828 30.526-17.868 41.58-.793 8.48-1.19 12.738-7.07 18.617-5.871 5.871-10.137 6.276-18.617 7.07-11.045 1.031-26.171 2.459-41.571 17.859-15.408 15.408-16.828 30.526-17.859 41.571-.802 8.489-1.199 12.746-7.07 18.617-5.88 5.88-10.137 6.276-18.626 7.078-11.045 1.031-26.163 2.451-41.571 17.859-4.892 4.892-6.497 11.821-4.839 18.062-3.068-.811-5.977-2.433-8.383-4.839-7.299-7.299-7.299-19.146 0-26.445 15.408-15.408 30.526-16.828 41.571-17.859 8.489-.802 12.746-1.199 18.626-7.078 5.871-5.871 6.267-10.128 7.07-18.617 1.031-11.045 2.451-26.163 17.859-41.571 15.4-15.4 30.526-16.828 41.571-17.859 8.48-.793 12.746-1.199 18.617-7.07 5.879-5.879 6.276-10.137 7.07-18.617 1.04-11.054 2.459-26.171 17.868-41.58 15.4-15.4 30.526-16.828 41.571-17.859 8.48-.793 12.737-1.19 18.617-7.07s6.276-10.137 7.078-18.626c1.031-11.045 2.451-26.163 17.859-41.571s30.526-16.828 41.571-17.859c8.489-.802 12.746-1.199 18.626-7.078 7.299-7.299 19.146-7.299 26.445 0 2.406 2.406 4.028 5.315 4.839 8.383z" fill="#f3d332"/></g><g><path d="m495.632 132.314c6.208-12.032 9.515-25.446 9.515-39.375 0-22.981-8.95-44.587-25.2-60.837s-37.856-25.199-60.837-25.199c-13.932 0-27.349 3.309-39.383 9.519-23.998-11.843-51.089-17.464-78.434-16.24-4.138.185-7.342 3.689-7.157 7.828.186 4.138 3.687 7.378 7.828 7.156 21.748-.962 43.295 2.816 62.917 10.976-2.286 1.863-4.494 3.846-6.607 5.959l-19.834 19.834c-32.78-4.26-63.446 5.267-84.623 26.445-3.118 3.117-6.028 6.486-8.647 10.011-10.106 13.598-24.52 23.517-41.681 28.684-20.759 6.251-38.971 17.106-54.129 32.266-5.731 5.731-10.933 12.022-15.458 18.699-2.324 3.428-1.429 8.092 2 10.416 3.386 2.307 8.078 1.455 10.417-2 3.995-5.893 8.587-11.446 13.649-16.508 13.388-13.39 29.487-22.981 47.848-28.51 20.27-6.104 37.351-17.895 49.395-34.099 2.185-2.94 4.612-5.75 7.214-8.353 15.255-15.256 36.564-23.304 60.001-23.035l-259.336 259.335c-.269-23.437 7.78-44.745 23.036-60.001 2.293-2.293 4.754-4.457 7.315-6.431 15.481-11.931 27.12-27.194 33.657-44.14 1.491-3.864-.434-8.206-4.298-9.696-3.864-1.492-8.206.433-9.697 4.298-5.548 14.382-15.513 27.403-28.818 37.657-3.07 2.365-6.02 4.958-8.766 7.705-21.178 21.178-30.707 51.843-26.445 84.624l-19.833 19.833c-1.805 1.805-3.504 3.685-5.126 5.617-22.956-55.434-9.078-122.697 35.802-167.577l135.278-135.279c17.9-17.899 39.903-31.456 63.629-39.202 3.938-1.286 6.087-5.521 4.802-9.458s-5.521-6.086-9.457-4.802c-25.959 8.476-50.02 23.295-69.581 42.854l-135.279 135.28c-26.076 26.076-43.012 58.767-48.979 94.539-5.702 34.188-.892 68.04 13.896 98.183-6.651 12.362-10.185 26.25-10.185 40.683 0 22.981 8.949 44.587 25.2 60.838 16.25 16.25 37.856 25.199 60.837 25.199 14.434 0 28.323-3.534 40.685-10.187 21.908 10.747 45.768 16.229 70.3 16.229 9.221 0 18.541-.774 27.881-2.332 35.771-5.966 68.462-22.902 94.538-48.978l135.279-135.279c25.749-25.749 42.612-58.011 48.767-93.297 6.052-34.7 1.242-69.198-13.896-99.852zm-453.785 337.889c-13.417-13.418-20.806-31.257-20.806-50.231 0-12.985 3.464-25.437 9.949-36.305.071-.107.133-.219.199-.329 2.953-4.888 6.516-9.454 10.658-13.595l327.033-327.034c13.417-13.418 31.256-20.807 50.23-20.807s36.813 7.389 50.231 20.807c13.417 13.416 20.806 31.255 20.806 50.229s-7.389 36.813-20.806 50.23l-227.865 227.867c-2.929 2.93-2.929 7.678 0 10.607 2.929 2.928 7.678 2.928 10.606 0l194.016-194.016c.268 23.437-7.78 44.745-23.035 60-2.599 2.6-5.41 5.027-8.353 7.215-16.203 12.043-27.994 29.123-34.098 49.395-5.529 18.36-15.121 34.458-28.509 47.847-13.436 13.437-29.596 23.047-48.032 28.566-19.697 5.896-37.29 18.331-50.875 35.96-1.974 2.561-4.138 5.022-6.431 7.315-15.255 15.255-36.563 23.303-60 23.035l34.465-34.465c2.929-2.93 2.929-7.678 0-10.607-2.929-2.928-7.678-2.928-10.606 0l-68.315 68.316c-4.139 4.139-8.702 7.701-13.587 10.652-.115.068-.232.133-.344.208-10.867 6.483-23.317 9.946-36.3 9.946-18.975 0-36.814-7.389-50.231-20.806zm408.307-155.348-135.279 135.279c-30.535 30.535-71.421 46.721-111.904 46.718-19.018-.001-37.948-3.583-55.668-10.92 4.078-3.189 21.409-21.055 25.452-24.963 5.122.666 10.193 1.01 15.184 1.01 26.945 0 51.566-9.582 69.432-27.447 2.748-2.748 5.34-5.697 7.706-8.767 11.656-15.125 26.627-25.757 43.296-30.747 20.843-6.239 39.125-17.116 54.337-32.328 15.159-15.159 26.015-33.371 32.266-54.13 5.167-17.161 15.086-31.574 28.684-41.681 3.528-2.623 6.896-5.532 10.01-8.646 21.177-21.178 30.706-51.844 26.445-84.624l19.833-19.833c2.118-2.118 4.105-4.332 5.972-6.623 23.452 56.02 9.69 122.246-35.766 167.702z"/><path d="m130.796 409.79c11.49-1.079 28.854-2.71 46.17-20.025 17.317-17.317 18.946-34.683 20.024-46.174.743-7.924.943-10.054 4.906-14.017 3.964-3.964 6.093-4.163 14.018-4.907 11.491-1.078 28.856-2.708 46.173-20.023 17.317-17.317 18.947-34.683 20.026-46.176.743-7.924.942-10.054 4.907-14.018 3.963-3.964 6.093-4.163 14.017-4.907 6.912-.647 15.513-1.454 25.106-5.527 3.813-1.618 5.592-6.021 3.973-9.834s-6.02-5.592-9.834-3.973c-7.451 3.162-14.46 3.82-20.646 4.4-8.961.84-15.436 1.447-23.222 9.233-7.788 7.788-8.395 14.263-9.235 23.226-.982 10.458-2.204 23.474-15.698 36.968s-26.51 14.716-36.968 15.697c-8.961.84-15.436 1.447-23.223 9.233-7.787 7.787-8.394 14.262-9.234 23.224-.981 10.458-2.202 23.473-15.696 36.967s-26.509 14.717-36.969 15.699c-8.962.84-15.438 1.447-23.224 9.234-4.369 4.366-11.473 4.366-15.839.001-4.366-4.367-4.366-11.473 0-15.839 13.495-13.495 26.511-14.717 36.972-15.698 8.96-.841 15.435-1.449 23.221-9.235 7.785-7.786 8.392-14.26 9.233-23.222.981-10.458 2.202-23.474 15.697-36.968 13.496-13.496 26.51-14.717 36.972-15.697 8.959-.842 15.433-1.449 23.219-9.234 7.787-7.788 8.395-14.263 9.235-23.225.981-10.457 2.202-23.473 15.698-36.968 13.496-13.496 26.511-14.717 36.973-15.697 8.959-.842 15.433-1.449 23.218-9.234 7.789-7.789 8.397-14.265 9.238-23.229.982-10.459 2.205-23.475 15.7-36.97 13.496-13.496 26.511-14.718 36.971-15.699 8.963-.842 15.438-1.451 23.226-9.238 4.368-4.367 11.472-4.367 15.839-.001 4.366 4.367 4.366 11.473 0 15.839-13.496 13.496-26.512 14.719-36.971 15.701-8.963.841-15.438 1.449-23.227 9.237-7.788 7.788-8.396 14.264-9.238 23.227-.605 6.446-1.291 13.753-4.788 21.53-1.699 3.778-.013 8.218 3.765 9.916 3.778 1.7 8.218.013 9.916-3.764 4.518-10.049 5.399-19.431 6.042-26.28.745-7.927.945-10.057 4.91-14.022s6.096-4.166 14.023-4.91c11.491-1.079 28.856-2.71 46.174-20.028 10.214-10.215 10.214-26.836-.001-37.052-10.215-10.213-26.835-10.213-37.051 0-3.966 3.967-6.097 4.167-14.022 4.912-11.491 1.078-28.856 2.707-46.174 20.025s-18.949 34.684-20.028 46.176c-.744 7.927-.944 10.057-4.91 14.022-3.963 3.964-6.092 4.163-14.017 4.908-11.49 1.077-28.855 2.705-46.174 20.023-17.318 17.318-18.948 34.684-20.026 46.175-.743 7.924-.943 10.054-4.907 14.018s-6.093 4.164-14.017 4.908c-11.49 1.077-28.855 2.705-46.174 20.023-17.318 17.318-18.947 34.684-20.025 46.176-.744 7.923-.943 10.052-4.906 14.015-3.963 3.964-6.093 4.163-14.019 4.908-11.491 1.078-28.857 2.707-46.175 20.025-10.214 10.215-10.214 26.836 0 37.052 5.107 5.106 11.816 7.66 18.525 7.66s13.418-2.554 18.526-7.661c3.967-3.962 6.096-4.162 14.025-4.906z"/></g></g></svg>